# xmcd CD database file
#
# Track frame offsets:
#	150
#	18924
#	39124
#	51768
#	68593
#	84505
#	98412
#	121364
#	143098
#	168083
#
# Disc length: 2612 seconds
#
# Revision: 0
# Processed by: cddbd v1.4PL0 Copyright (c) Steve Scherf et al.
# Submitted via: CDex 1.50Beta7
#
DISCID=6b0a320a
DTITLE=Gigi Gryce - Nica's Tempo
DYEAR=1900
DGENRE=Jazz
TTITLE0=Speculation
TTITLE1=In A Meditative Mood
TTITLE2=Social Call
TTITLE3=Smoke Signals
TTITLE4=You'll Always Be the one I love
TTITLE5=Kerry Dance
TTITLE6=Shuffle Boil
TTITLE7=Brake's Sake
TTITLE8=Gallop's gallop
TTITLE9=Nica's Tempo
EXTD=
EXTT0=
EXTT1=
EXTT2=
EXTT3=
EXTT4=
EXTT5=
EXTT6=
EXTT7=
EXTT8=
EXTT9=
PLAYORDER=
